<svg width="21" height="20" viewBox="0 0 21 20" fill="none" xmlns="http://www.w3.org/2000/svg">
<path d="M10.7112 19.747C9.17226 19.7483 7.65555 19.3798 6.28883 18.6725C6.22273 18.6383 6.16401 18.5915 6.11602 18.5346C6.06803 18.4778 6.03171 18.412 6.00913 18.3411C5.98655 18.2702 5.97815 18.1956 5.98442 18.1214C5.99069 18.0473 6.01149 17.9751 6.04566 17.909C6.07982 17.8429 6.12666 17.7842 6.18352 17.7362C6.24037 17.6882 6.30613 17.6519 6.37702 17.6293C6.44791 17.6067 6.52256 17.5983 6.59669 17.6046C6.67083 17.6109 6.74301 17.6317 6.8091 17.6658C8.63968 18.5971 10.7454 18.8346 12.7374 18.3343C14.7294 17.834 16.4731 16.6299 17.6465 14.9442C18.8198 13.2585 19.3436 11.2052 19.121 9.16342C18.8985 7.12167 17.9446 5.2294 16.4356 3.83611C14.9266 2.44281 12.9645 1.6426 10.9115 1.58326C8.85847 1.52392 6.85335 2.20946 5.26641 3.51328C3.67947 4.81709 2.61791 6.6511 2.27779 8.67659C1.93767 10.7021 2.34196 12.7822 3.416 14.5329C3.49176 14.6624 3.51406 14.8164 3.47816 14.9621C3.44226 15.1078 3.35099 15.2338 3.22373 15.3133C3.15996 15.3523 3.0891 15.3783 3.01524 15.3897C2.94138 15.4011 2.86599 15.3978 2.79341 15.3799C2.72084 15.3621 2.65254 15.33 2.59244 15.2855C2.53235 15.2411 2.48166 15.1852 2.44331 15.121C1.20212 13.1334 0.7296 10.7609 1.11457 8.44946C1.49953 6.13799 2.71547 4.0467 4.53385 2.56866C6.35223 1.09062 8.64783 0.327602 10.9892 0.423018C13.3306 0.518435 15.5565 1.46571 17.2486 3.08681C18.5553 4.29798 19.4997 5.84845 19.9765 7.56519C20.4533 9.28192 20.4436 11.0974 19.9485 12.8089C19.4535 14.5205 18.4925 16.0608 17.173 17.2579C15.8534 18.4551 14.2271 19.262 12.4756 19.5886C11.8938 19.6969 11.303 19.7499 10.7112 19.747Z" fill="#95E1D3"/>
</svg>
