<svg width="16" height="24" viewBox="0 0 16 24" fill="none" xmlns="http://www.w3.org/2000/svg">
<path d="M7.78636 11.2245C7.02118 11.2245 6.27319 10.9976 5.63696 10.5724C5.00074 10.1473 4.50486 9.54311 4.21204 8.83617C3.91922 8.12924 3.8426 7.35135 3.99188 6.60087C4.14116 5.85039 4.50963 5.16103 5.05069 4.61997C5.59176 4.07891 6.28112 3.71044 7.03159 3.56116C7.78207 3.41188 8.55996 3.48849 9.2669 3.78131C9.97383 4.07414 10.5781 4.57001 11.0032 5.20624C11.4283 5.84246 11.6552 6.59046 11.6552 7.35564C11.6552 8.38171 11.2476 9.36576 10.522 10.0913C9.79649 10.8169 8.81244 11.2245 7.78636 11.2245ZM7.78636 4.67357C7.2559 4.67357 6.73735 4.83087 6.29629 5.12558C5.85522 5.42029 5.51146 5.83917 5.30846 6.32926C5.10546 6.81934 5.05235 7.35861 5.15583 7.87888C5.25932 8.39915 5.51476 8.87705 5.88986 9.25215C6.26495 9.62724 6.74285 9.88268 7.26312 9.98617C7.78339 10.0897 8.32266 10.0365 8.81275 9.83355C9.30283 9.63055 9.72171 9.28678 10.0164 8.84572C10.3111 8.40465 10.4684 7.8861 10.4684 7.35564C10.4684 6.64431 10.1859 5.96212 9.68287 5.45913C9.17989 4.95615 8.49769 4.67357 7.78636 4.67357Z" fill="#F38281"/>
<path d="M14.4797 9.27827H14.3847C14.239 9.24162 14.1121 9.15207 14.0288 9.02704C13.9454 8.90201 13.9116 8.75044 13.9338 8.60182V8.41194C13.9377 8.32892 13.9377 8.24575 13.9338 8.16272C13.9455 8.04037 13.9455 7.91718 13.9338 7.79483C13.9338 7.48627 13.9338 7.332 13.9338 7.332C13.9338 5.73623 13.2999 4.20582 12.1715 3.07744C11.0431 1.94907 9.5127 1.31515 7.91693 1.31515C6.32117 1.31515 4.79076 1.94907 3.66238 3.07744C2.534 4.20582 1.90009 5.73623 1.90009 7.332C1.90009 7.332 1.90009 7.48627 1.90009 7.71176C1.93316 7.86939 1.98913 8.02132 2.06623 8.16272V8.45941V8.64929C2.07792 8.72722 2.07415 8.80668 2.05512 8.88315C2.0361 8.95961 2.00221 9.03158 1.95537 9.09494C1.90854 9.15831 1.84968 9.21183 1.78216 9.25245C1.71464 9.29307 1.63978 9.31999 1.56186 9.33168C1.48394 9.34337 1.40447 9.33959 1.32801 9.32057C1.25154 9.30155 1.17957 9.26765 1.11621 9.22082C1.05284 9.17398 0.999324 9.11513 0.958706 9.04761C0.918087 8.98009 0.891165 8.90523 0.879476 8.82731V8.40008C0.85886 8.20679 0.85886 8.01185 0.879476 7.81857V7.45067C0.879476 5.54016 1.63843 3.70789 2.98936 2.35696C4.3403 1.00602 6.17256 0.24707 8.08308 0.24707C9.99359 0.24707 11.8259 1.00602 13.1768 2.35696C14.5277 3.70789 15.2867 5.54016 15.2867 7.45067C15.2867 7.45067 15.2867 7.65242 15.2867 7.88977C15.2845 8.085 15.2647 8.27964 15.2273 8.47128L15.1205 8.77984C15.0998 8.93008 15.0212 9.06629 14.9015 9.1594C14.7818 9.25252 14.6304 9.29517 14.4797 9.27827Z" fill="#F38281"/>
<path d="M8 23.2937C7.92217 23.2947 7.84501 23.2793 7.77348 23.2487C7.70194 23.218 7.63761 23.1727 7.58463 23.1157C1.29483 16.8259 0.879465 7.75909 0.796392 7.37932C0.793212 7.30139 0.80543 7.22358 0.832347 7.15037C0.859264 7.07716 0.900352 7.00998 0.95326 6.95266C1.00617 6.89534 1.06986 6.84902 1.14069 6.81634C1.21151 6.78366 1.28809 6.76527 1.36603 6.76221C1.44397 6.75903 1.52177 6.77125 1.59499 6.79817C1.6682 6.82508 1.73538 6.86617 1.7927 6.91908C1.85002 6.97199 1.89634 7.03568 1.92902 7.10651C1.9617 7.17733 1.98009 7.25391 1.98315 7.33185C1.98315 7.41493 2.46972 16.3275 8.41536 22.285C8.47212 22.3382 8.51736 22.4026 8.54829 22.474C8.57922 22.5455 8.59517 22.6225 8.59517 22.7003C8.59517 22.7782 8.57922 22.8552 8.54829 22.9266C8.51736 22.9981 8.47212 23.0624 8.41536 23.1157C8.36238 23.1727 8.29805 23.218 8.22651 23.2487C8.15498 23.2793 8.07782 23.2947 8 23.2937Z" fill="#F38281"/>
<path d="M7.99999 23.2941C7.92217 23.295 7.84501 23.2797 7.77348 23.249C7.70194 23.2184 7.63761 23.1731 7.58463 23.1161C7.52787 23.0628 7.48263 22.9984 7.4517 22.927C7.42077 22.8556 7.40482 22.7785 7.40482 22.7007C7.40482 22.6228 7.42077 22.5458 7.4517 22.4744C7.48263 22.4029 7.52787 22.3386 7.58463 22.2853C13.5184 16.3516 14.005 7.41529 14.0168 7.33222C14.0127 7.25216 14.0262 7.17216 14.0564 7.0979C14.0866 7.02365 14.1328 6.95696 14.1917 6.90259C14.2506 6.84821 14.3208 6.80747 14.3972 6.78327C14.4737 6.75908 14.5545 6.75201 14.634 6.76257C14.7903 6.77175 14.937 6.84117 15.0432 6.95625C15.1495 7.07133 15.2069 7.22311 15.2036 7.37969C15.2036 7.75945 14.7052 16.8737 8.41536 23.1161C8.36238 23.1731 8.29805 23.2184 8.22651 23.249C8.15498 23.2797 8.07782 23.295 7.99999 23.2941Z" fill="#F38281"/>
</svg>
