<svg width="26" height="18" viewBox="0 0 26 18" fill="none" xmlns="http://www.w3.org/2000/svg">
<path d="M25.2483 9.23564C25.2509 9.35842 25.2109 9.47831 25.1352 9.57496L19.3443 17.3225C19.2916 17.3936 19.2235 17.4519 19.1452 17.493C19.0669 17.5341 18.9803 17.557 18.8919 17.5601H7.29877C7.20842 17.5587 7.11959 17.5366 7.03917 17.4955C6.95875 17.4543 6.8889 17.3951 6.83504 17.3225L1.04415 9.57496C0.972425 9.47636 0.933792 9.35757 0.933792 9.23564C0.933792 9.11372 0.972425 8.99493 1.04415 8.89633L6.83504 1.14875C6.88947 1.07763 6.95971 1.02017 7.0402 0.980905C7.12069 0.941642 7.20922 0.92166 7.29877 0.92254H18.8919C18.9795 0.923397 19.0658 0.944214 19.1442 0.98341C19.2226 1.02261 19.291 1.07915 19.3443 1.14875L25.1352 8.89633C25.2093 8.99383 25.2491 9.11315 25.2483 9.23564V9.23564ZM18.6091 16.429L23.9815 9.23564L18.6091 2.05357L7.58152 2.05357L2.1978 9.23564L7.58152 16.429H18.6091Z" fill="#95E1D3"/>
</svg>
